<svg id="Capa_1" enable-background="new 0 0 512 512" height="512" viewBox="0 0 512 512" width="512" xmlns="http://www.w3.org/2000/svg"><g><g><g><path d="m302.847 499.444h-93.694c-10.406 0-19.462-7.119-21.919-17.231l-23.234-95.612h184l-23.234 95.613c-2.457 10.111-11.513 17.23-21.919 17.23z" fill="#4a80aa"/><path d="m282.958 386.6-23.234 95.613c-2.457 10.112-11.513 17.231-21.919 17.231h65.042c10.406 0 19.462-7.119 21.919-17.231l23.234-95.613z" fill="#407093"/></g><g><g><path d="m333.229 116.851c-1.134-62.694-52.538-93.733-70.842-102.811-4.024-1.996-8.751-1.996-12.776 0-18.304 9.079-69.707 40.118-70.842 102.811-1.379 76.306 77.231 218.784 77.231 218.784s78.61-142.478 77.229-218.784z" fill="#c6e873"/><path d="m267.896 116.851c-5.773 81.602-8.744 158.375-10.273 215.793 11.192-20.808 76.87-145.982 75.607-215.793-1.134-62.694-52.538-93.733-70.841-102.812-4.024-1.996-8.751-1.996-12.776 0-5.993 2.973-15.535 8.3-25.699 16.322 22.134 16.506 46.96 44.395 43.982 86.49z" fill="#b5e245"/><g><g><g><g><g><path d="m462.779 248.776c31.281-25.293 47.324-65.625 39.944-107.235-.841-4.741-4.037-8.728-8.443-10.67-52.581-23.179-111.443-13.556-146.906 13.539-65.701 50.197-90.088 141.703-91.373 222.384 26.218-16.159 52.876-31.804 80.3-46.641 42.255-22.86 90.312-42.134 126.478-71.377z" fill="#c6e873"/></g></g></g><path d="m502.723 141.542c-.841-4.741-4.037-8.728-8.443-10.67-12.36-5.449-25.067-9.063-37.736-11.086-1.75 31.845-17.029 61.049-41.516 81.24-89.014 73.396-128.623 124.167-148.153 159.117 22.713-13.804 45.784-27.198 69.426-39.989 42.255-22.86 90.312-42.135 126.478-71.377 31.281-25.293 47.323-65.626 39.944-107.235z" fill="#b5e245"/></g><g><g><g><g><path d="m49.221 248.776c-31.281-25.292-47.323-65.625-39.944-107.234.841-4.741 4.037-8.728 8.443-10.67 52.581-23.179 111.443-13.556 146.906 13.539 65.701 50.197 90.088 141.703 91.373 222.384-26.218-16.159-52.876-31.804-80.3-46.641-42.255-22.861-90.312-42.135-126.478-71.378z" fill="#c6e873"/></g></g></g><path d="m118.126 190.91c51.49 39.34 112.839 101.828 137.591 165.855-3.087-78.126-28.098-164.227-91.091-212.355-35.463-27.094-94.325-36.718-146.906-13.539-4.406 1.942-7.602 5.929-8.443 10.67-1.492 8.41-2.01 16.766-1.656 24.958 41.678-7.026 83.086 3.462 110.505 24.411z" fill="#b5e245"/></g></g><g><g><path d="m357.775 363.341h-203.55c-9.717 0-17.594-7.877-17.594-17.594 0-9.717 7.877-17.594 17.594-17.594h203.55c9.717 0 17.594 7.877 17.594 17.594 0 9.717-7.877 17.594-17.594 17.594z" fill="#4a80aa"/></g></g><path d="m357.775 328.153h-47.739v17.594c0 9.717-7.877 17.594-17.594 17.594h65.333c9.717 0 17.594-7.877 17.594-17.594s-7.877-17.594-17.594-17.594z" fill="#407093"/></g><path d="m17.717 363.341h476.565c5.643 0 10.217 4.575 10.217 10.217v14.615c0 5.643-4.575 10.217-10.217 10.217h-476.565c-5.643 0-10.217-4.575-10.217-10.217v-14.615c0-5.642 4.575-10.217 10.217-10.217z" fill="#afe2f7"/><path d="m494.283 363.341h-54.39v17.525c0 9.679-7.846 17.525-17.525 17.525h71.915c5.643 0 10.217-4.574 10.217-10.217v-14.615c0-5.643-4.575-10.218-10.217-10.218z" fill="#8fd6f7"/></g></g><g><path d="m233.52 471.791c4.035-.938 6.546-4.968 5.609-9.002l-8.395-36.147c-.937-4.035-4.964-6.548-9.002-5.609-4.035.938-6.546 4.968-5.609 9.002l8.395 36.147c.943 4.063 4.995 6.541 9.002 5.609z"/><path d="m287.483 466.182 8.395-36.147c.937-4.034-1.574-8.064-5.609-9.002-4.037-.938-8.065 1.575-9.002 5.609l-8.395 36.147c-.937 4.034 1.574 8.064 5.609 9.002 4.007.933 8.059-1.549 9.002-5.609z"/><path d="m179.034 129.966c4.141-.125 7.396-3.583 7.271-7.724-.054-1.794-.066-3.562-.036-5.256.787-43.469 28.901-77.488 66.676-96.229 1.913-.949 4.197-.949 6.11 0 37.462 18.585 65.883 52.443 66.676 96.229.03 1.702.019 3.476-.036 5.271-.125 4.141 3.129 7.599 7.269 7.724.078.003.155.004.232.004 4.037 0 7.369-3.21 7.492-7.272.062-2.037.075-4.055.04-5.998-.902-49.858-32.896-88.506-75.008-109.395-6.087-3.02-13.354-3.02-19.44 0-41.779 20.724-74.1 59.184-75.008 109.395-.035 1.935-.022 3.946.04 5.98.125 4.141 3.63 7.4 7.722 7.271z"/><path d="m494.283 355.842h-113.542c1.364-3.091 2.127-6.505 2.127-10.095 0-13.837-11.257-25.094-25.094-25.094h-6.352c71.997-37.226 130.872-58.82 152.838-116.715 7.644-20.146 9.666-42.176 5.847-63.706-1.274-7.188-6.061-13.252-12.802-16.223-26.126-11.517-55.083-15.901-83.737-12.674-64.926 7.307-108.623 51.995-135.447 111.562-5.673 12.599-10.544 25.945-14.621 39.946v-150.936c0-4.143-3.358-7.5-7.5-7.5s-7.5 3.357-7.5 7.5v150.938c-4.078-14.001-8.948-27.347-14.622-39.946-26.831-59.581-70.53-104.257-135.447-111.562-28.654-3.224-57.612 1.156-83.736 12.673-6.742 2.971-11.529 9.036-12.803 16.224-3.819 21.53-1.797 43.56 5.847 63.706 7.498 19.763 20.211 37.284 36.767 50.67 33.565 27.139 76.99 45.839 116.071 66.045h-6.352c-13.837 0-25.094 11.257-25.094 25.094 0 3.59.763 7.003 2.127 10.095h-113.541c-9.769-.002-17.717 7.945-17.717 17.715v14.615c0 9.77 7.948 17.718 17.717 17.718h143.252l6.198 25.504c.973 4.005 5.013 6.5 9.059 5.518 4.025-.979 6.495-5.034 5.517-9.059l-5.337-21.963h159.188l-18.116 74.551c-1.646 6.772-7.662 11.502-14.631 11.502h-93.694c-6.969 0-12.985-4.729-14.631-11.503l-4.494-18.493c-.978-4.025-5.03-6.497-9.059-5.518-4.025.979-6.495 5.034-5.517 9.059l4.494 18.494c3.285 13.52 15.295 22.961 29.207 22.961h93.694c13.912 0 25.922-9.441 29.207-22.961l18.976-78.092h143.252c9.77 0 17.717-7.948 17.717-17.718v-14.615c.001-9.77-7.947-17.717-17.716-17.717zm-79.037-229.601c26.023-2.925 52.307 1.045 76.009 11.494 2.157.95 3.683 2.863 4.083 5.116 3.346 18.866 1.582 38.149-5.102 55.766-21.767 57.373-85.336 74.779-170.434 122.036h-29.126c26.659-40.278 56.995-70.914 80.614-91.428 35.318-30.675 63.693-46.041 63.976-46.192 3.649-1.957 5.023-6.5 3.068-10.15-1.956-3.652-6.501-5.024-10.152-3.072-1.202.644-29.853 16.124-66.379 47.788-26.087 22.614-60.083 57.142-88.977 103.055h-5.981c11.612-89.398 57.464-184.175 148.401-194.413zm-361.309 116.703c-14.491-11.717-25.617-27.045-32.173-44.327-6.684-17.616-8.448-36.899-5.102-55.766.399-2.253 1.926-4.166 4.083-5.117 23.701-10.448 49.983-14.419 76.008-11.493 90.767 10.218 136.754 104.745 148.401 194.412h-5.981c-45.784-72.753-114.143-128.771-155.355-150.842-3.652-1.952-8.197-.58-10.152 3.072-1.955 3.651-.58 8.196 3.072 10.152.966.517 83.727 45.651 144.595 137.618h-29.135c-55.149-30.625-101.416-47.917-138.261-77.709zm90.194 102.803c0-5.565 4.528-10.094 10.094-10.094h203.55c5.566 0 10.094 4.528 10.094 10.094s-4.528 10.095-10.094 10.095h-203.55c-5.566 0-10.094-4.529-10.094-10.095zm352.869 42.427c0 1.499-1.219 2.718-2.717 2.718h-476.566c-1.498 0-2.717-1.219-2.717-2.718v-14.615c0-1.498 1.219-2.717 2.717-2.717h476.565c1.498 0 2.717 1.219 2.717 2.717v14.615z"/></g></g></svg>