<svg id="_x33_0" enable-background="new 0 0 64 64" height="512" viewBox="0 0 64 64" width="512" xmlns="http://www.w3.org/2000/svg"><g><g><g><path d="m62 62h-19l.21-.42c.54-1.09 1.37-1.97 2.36-2.59 1.01-.64 2.19-.99 3.43-.99l.23-.23c.4-.4.85-.73 1.33-1 .89-.5 1.9-.77 2.94-.77.17 0 .33.01.5.02 1.42.12 2.76.74 3.77 1.75l.23.23c1.1 0 2.1.45 2.83 1.17.72.73 1.17 1.73 1.17 2.83z" fill="#cf9e76"/></g><g><path d="m43.67 43.38 2.53 7.31-2.53 1.45-3.22-4.51c.25-.13.48-.3.68-.5.54-.54.87-1.29.87-2.11 0-1.03-.52-1.97-1.61-2.64v-.01l.76-.26c1.03-.36 2.14.2 2.52 1.27z" fill="#aab2bd"/></g><g><path d="m47.17 50.13c.27-.15.57-.16.83-.05.24.09.44.3.53.57l2.03 6.12c-.48.27-.93.6-1.33 1l-.23.23c-1.24 0-2.42.35-3.43.99l-3.39-4.78c-.33-.46-.19-1.1.3-1.38l1.19-.69 2.53-1.45z" fill="#ccd1d9"/></g><g><path d="m39.59 59.59c.26.26.41.62.41 1 0 .78-.63 1.41-1.41 1.41h-.59-4c-1.1 0-2-.9-2-2v-2h6z" fill="#969faa"/></g><g><path d="m35.82 40.53-11.16-4.47c1.19-1.29 2.88-2.05 4.67-2.06h.03c1.61 0 3.09.6 4.22 1.59l.01.01c1.13 1 1.91 2.4 2.11 4z" fill="#d3a06c"/></g><g><path d="m29.92 53.14-2.09 3.32c-.88 1.42-2.09 2.55-3.5 3.33s-3.01 1.21-4.68 1.21c-5.33 0-9.65-4.32-9.65-9.65v-5.35h7.75l3.14-4.56 13.51 5.5.73.3c.52.21 1.05.38 1.59.5l1.28 10.26h-6z" fill="#d3a06c"/></g><g><path d="m19.09 30.16 10.24 3.84c-1.79.01-3.48.77-4.67 2.06l-2.73-1.09c-.28-1.95-1.32-3.67-2.84-4.81z" fill="#fcd770"/></g><g><path d="m35.82 40.53.85.34-2.27 6.07-13.51-5.5-6.88-2.81c-1.21-.49-2.21-1.33-2.91-2.37-.64-.95-1.03-2.07-1.09-3.26-.01-.11-.01-.22-.01-.33 0-1.71.68-3.35 1.89-4.56l.11-.11 4.12.82c.3.06.59.14.88.24.76.25 1.47.62 2.09 1.1 1.52 1.14 2.56 2.86 2.84 4.81l2.73 1.09z" fill="#fcd770"/></g><g><path d="m11.1 36.26c.7 1.04 1.7 1.88 2.91 2.37l6.88 2.81-3.14 4.56h-7.75v-13h.01c.06 1.19.45 2.31 1.09 3.26z" fill="#fcd770"/></g><g><path d="m39.66 42.06-2.99-1.19-.85-.34-.12-.93c-.2-1.6-.98-3-2.11-4l4.19 1.57c1.34.5 2.22 1.77 2.22 3.2v.22c0 .51-.12 1.01-.34 1.47z" fill="#f0d0b4"/></g><g><path d="m39.66 42.06.47.19c.09.04.18.08.26.13 1.09.67 1.61 1.61 1.61 2.64 0 .82-.33 1.57-.87 2.11-.2.2-.43.37-.68.5-.42.24-.91.37-1.43.37-.78 0-1.55-.09-2.3-.26-.54-.12-1.07-.29-1.59-.5l-.73-.3 2.27-6.07z" fill="#f0d0b4"/></g><g><path d="m22.19 2.76 1.81 7.24h-18l1.81-7.24c.11-.45.51-.76.97-.76h12.44c.46 0 .86.31.97.76z" fill="#cf9e76"/></g><g><path d="m28 11v2c0 .55-.45 1-1 1h-5-10-7-2c-.55 0-1-.45-1-1v-2c0-.55.45-1 1-1h3 18 3c.55 0 1 .45 1 1z" fill="#d3a06c"/></g><g><path d="m10 20c0 .55.22 1.05.59 1.41.36.37.86.59 1.41.59v3c-4.25-1.82-7-6-7-10.62v-.38h7v4c-.55 0-1.05.22-1.41.59-.37.36-.59.86-.59 1.41z" fill="#656d78"/></g><g><path d="m17 29.06c-.29-.1-.58-.18-.88-.24l-4.12-.82v-3-3c-.55 0-1.05-.22-1.41-.59-.37-.36-.59-.86-.59-1.41s.22-1.05.59-1.41c.36-.37.86-.59 1.41-.59v-4h10v3.17c0 .53.21 1.04.59 1.42l1 1c.26.26.41.62.41 1 0 .78-.63 1.41-1.41 1.41h-.59v2 .46c0 1.96-1.58 3.54-3.54 3.54-.08 0-.16 0-1.46-.32z" fill="#f0d0b4"/></g><g><path d="m62 44c0 3.31-2.69 6-6 6h-2v-2c0-3.31 2.69-6 6-6h2z" fill="#b4dd7f"/></g><g><path d="m54 44h-2c-1.46 0-2.83-.39-4-1.07-2.39-1.38-4-3.97-4-6.93v-2h2c.69 0 1.36.09 2 .25 3.45.89 6 4.02 6 7.75z" fill="#b4dd7f"/></g><g><path d="m60.36 15.54-.36-.54v-1.46c0-1.42-.83-2.64-2.04-3.2v-.01c-.29-2.59-2.27-4.71-4.89-5.15l-1.07-.18c-.62-.94-1.46-1.68-2.43-2.2-.96-.52-2.05-.8-3.18-.8h-.6c-1.79 0-3.5.71-4.76 1.97l-.03.03-.93.23c-1.91.48-3.45 1.9-4.07 3.77l-.54.13c-2.03.5-3.46 2.31-3.46 4.4v.06c0 .93.27 1.82.78 2.58.56.84 1.22 1.83 1.22 1.83l-1.13 1.69c-.57.85-.87 1.85-.87 2.88v.06c0 2.07 1.16 3.95 3.01 4.87.57.29.99.5.99.5l1.15 1.15c1.18 1.18 2.79 1.85 4.47 1.85h2.38l4 1 3.33-2c1.09-.65 2.34-1 3.62-1 1.95 0 3.71-.79 4.98-2.07 1.28-1.27 2.07-3.03 2.07-4.98 0-1.92-.57-3.8-1.64-5.41z" fill="#b4dd7f"/></g><g><circle cx="55" cy="21" fill="#ff826e" r="3"/></g><g><circle cx="43" cy="11" fill="#ff826e" r="3"/></g><g><circle cx="39" cy="21" fill="#ff826e" r="3"/></g></g><g><circle cx="18" cy="18" r="1"/><path d="m55 43.111v-1.111c0-3.91-2.51-7.236-6-8.475v-1.959l2.841-1.704c.939-.564 2.015-.862 3.111-.862 4.438 0 8.048-3.61 8.048-8.048 0-2.13-.624-4.192-1.806-5.963l-.194-.292v-1.162c0-1.615-.849-3.036-2.124-3.84-.54-2.802-2.793-5.028-5.644-5.504l-.658-.109c-1.457-1.938-3.735-3.082-6.179-3.082h-.604c-1.974 0-3.834.733-5.293 2.095l-.673.169c-2.069.517-3.742 1.951-4.572 3.889l-.029.007c-2.488.605-4.224 2.815-4.224 5.43 0 1.123.327 2.208.947 3.136l.851 1.274-.756 1.134c-.682 1.021-1.042 2.21-1.042 3.5 0 2.458 1.363 4.666 3.559 5.764l.85.425 1.035 1.035c1.381 1.381 3.218 2.142 5.171 2.142h2.262l3.123.781v1.278c-.329-.037-.662-.059-1-.059h-3v3c0 3.114 1.59 5.862 4 7.478v5.638c-.085.03-.169.067-.25.11l-2.14-6.171c-.271-.783-.823-1.409-1.553-1.762-.668-.323-1.416-.37-2.12-.157.024-.183.063-.365.063-.55v-.22c0-1.83-1.151-3.491-2.864-4.134l-4.068-1.526c-1.243-1.03-2.821-1.658-4.53-1.698l-10.038-3.764c-.148-.106-.301-.206-.456-.303 2.225-.287 3.956-2.173 3.956-4.476v-1.5c1.135-.197 2-1.188 2-2.379 0-.636-.258-1.258-.707-1.707l-1-1c-.187-.187-.293-.444-.293-.707v-2.172h4c1.103 0 2-.897 2-2v-2c0-1.103-.897-2-2-2h-2.22l-1.621-6.484c-.222-.893-1.02-1.516-1.94-1.516h-12.438c-.92 0-1.718.623-1.94 1.516l-1.621 6.484h-2.22c-1.103 0-2 .897-2 2v2c0 1.103.897 2 2 2h1.023c.222 4.555 2.889 8.617 6.977 10.632v1.96c-1.292 1.383-2 3.175-2 5.076 0 .112.02.22.025.332h-.025v18.349c0 5.873 4.778 10.651 10.651 10.651 3.696 0 7.072-1.871 9.031-5.006l1.067-1.707 1.251 2.918v1.795c0 .352.072.686.184 1h-4.184v2h7 4 .586 24.414v-1c0-2.611-2.013-4.762-4.567-4.981-.96-.944-2.145-1.575-3.433-1.854v-4.165h1c3.859 0 7-3.141 7-7v-3h-3c-1.958 0-3.728.81-5 2.111zm-10.758-14.081-2.627-.03c-1.419 0-2.754-.553-3.758-1.557l-1.265-1.266-1.141-.569c-1.512-.755-2.451-2.279-2.451-4.037 0-.831.244-1.636.706-2.328l1.496-2.243-1.592-2.386c-.399-.598-.61-1.298-.61-2.08 0-1.634 1.108-3.045 2.695-3.432l1.078-.261.175-.525c.519-1.553 1.774-2.716 3.362-3.113l.933-.233.295-.093.195-.196c1.084-1.084 2.526-1.681 4.058-1.681h.604c1.923 0 3.707.955 4.773 2.555l.24.36 1.496.249c1.645.274 3.009 1.369 3.669 2.837-1.268-.041-2.434.445-3.315 1.327l-.672.672h-.172c-1.179 0-2.287.459-3.121 1.293l1.414 1.414c.456-.456 1.063-.707 1.707-.707h1l1.258-1.258c.478-.478 1.115-.742 1.793-.742 1.397 0 2.535 1.138 2.535 2.535v1.768l.53.796c.962 1.441 1.47 3.12 1.47 4.854 0 3.334-2.713 6.047-6.048 6.047-1.458 0-2.89.396-4.141 1.146l-1.811 1.088v-.82l2.707-2.707-1.414-1.414-1.293 1.293v-6.253l2.8-3.733-1.6-1.2-2.432 3.243-2.213-1.475-1.109 1.664 2.554 1.703v6.596l-1.445-.963-1.109 1.664 2.554 1.704v1.184zm.758 6.97v-1h1c3.712 0 6.751 2.908 6.978 6.564l-4.271-4.271-1.414 1.414 4.271 4.271c-3.656-.227-6.564-3.266-6.564-6.978zm.861 21.689-2.887-3.994 4.61-2.73 1.782 5.385c-.276.202-.544.418-.793.662-.956.053-1.872.29-2.712.677zm-.878-7.457-1.024.589-2.132-2.984c.724-.721 1.173-1.718 1.173-2.818 0-.235-.026-.465-.065-.69zm-9.305-3.859 1.573-4.195 2.502 1.001c.758.302 1.247 1.025 1.247 1.84 0 1.092-.889 1.981-1.981 1.981-1.149 0-2.271-.216-3.341-.627zm3.322-6.007v.22c0 .044-.012.087-.015.131l-2.251-.9-.043-.345c-.08-.639-.245-1.248-.475-1.822l1.216.456c.938.351 1.568 1.259 1.568 2.26zm-4.466-1.43-7.929-3.172c.827-.491 1.778-.764 2.755-.764 2.44 0 4.532 1.648 5.174 3.936zm-11.748-4.699c-.141-.646-.333-1.273-.615-1.854l3.832 1.437c-.566.289-1.098.645-1.576 1.074zm-.907-14.944 1 1c.077.077.121.184.121.293 0 .228-.186.414-.414.414h-1.586v2h-.586c-.645 0-1.251-.251-1.707-.707l-1.414 1.414c.834.834 1.942 1.293 3.121 1.293h.526c-.247 1.141-1.262 2-2.476 2-.678 0-1.314-.264-1.793-.742l-.965-.965-1.414 1.414.915.915-2.207-.442v-6.18h-1c-.552 0-1-.448-1-1s.448-1 1-1h1v-4h8v2.172c0 .801.313 1.555.879 2.121zm-8.325-10.293-1.076-1.721 1.174-2.348 1.535 2.457-.805 1.612zm-2.318-3.708-1.432-2.292h2.578zm3.568-2.292h2.578l-1.146 2.291zm3.75 6-1.076-1.721 1.174-2.348 2.544 4.069zm2.666-6 .944 3.775-2.36-3.775zm-12.821 1.526 1.789 2.861-.806 1.613h-2.102zm-5.399 6.474h24l.002 2h-24.002zm3.023 4h4.977v2.171c-1.164.413-2 1.525-2 2.829s.836 2.416 2 2.829v.528c-2.908-1.796-4.777-4.905-4.977-8.357zm6.346 14.094 3.551.71c1.983.397 3.616 1.711 4.459 3.471l-3.008-1.203-.742 1.857 18.765 7.506-1.572 4.191-19.433-7.917c-2.059-.839-3.389-2.817-3.389-5.041 0-1.334.497-2.581 1.369-3.574zm4.855 15.906h-6.224v-7.257c.721.772 1.61 1.4 2.635 1.818l5.725 2.332zm13.483 7.443c-.469-1.092-.707-2.252-.707-3.443h-2c0 1.395.273 2.751.797 4.038l-1.81 2.896c-1.591 2.545-4.334 4.066-7.336 4.066-4.77 0-8.651-3.881-8.651-8.651v-4.349h4.849l-1.673 2.434 1.648 1.133 5.432-7.901 13.498 5.499c.347.142.699.264 1.056.37l1.057 8.465h-4.207zm7.293 8.557h-4c-.552 0-1-.448-1-1v-1h4.585l1.294 1.293c.077.077.121.184.121.293 0 .228-.186.414-.414.414zm4.384 0h-1.426c.024-.135.042-.272.042-.414 0-.636-.258-1.258-.707-1.707l-1.343-1.344-1.074-8.595c.378.038.759.06 1.143.06.371 0 .724-.068 1.065-.163l2.133 2.987-.24.138c-.474.273-.813.736-.931 1.271-.118.537-.004 1.103.314 1.551l2.818 3.973c-.723.613-1.336 1.368-1.794 2.243zm15.202-2h.414c1.304 0 2.416.836 2.829 2h-16.061c1.024-1.256 2.561-2 4.232-2h.414l.525-.525c.952-.952 2.216-1.475 3.561-1.475s2.609.523 3.561 1.475zm-4.586-3.976c-.634.044-1.251.174-1.839.381l-1.677-5.067c-.099-.299-.268-.559-.484-.773v-5.09c.94.334 1.947.525 3 .525h1v3 3zm8-11.024c0 2.599-2.001 4.717-4.539 4.953l3.246-3.246-1.414-1.414-3.246 3.246c.236-2.538 2.354-4.539 4.953-4.539h1z"/><path d="m55 25c2.206 0 4-1.794 4-4s-1.794-4-4-4-4 1.794-4 4 1.794 4 4 4zm0-6c1.103 0 2 .897 2 2s-.897 2-2 2-2-.897-2-2 .897-2 2-2z"/><path d="m39 17c-2.206 0-4 1.794-4 4s1.794 4 4 4 4-1.794 4-4-1.794-4-4-4zm0 6c-1.103 0-2-.897-2-2s.897-2 2-2 2 .897 2 2-.897 2-2 2z"/><path d="m47 11c0-2.206-1.794-4-4-4s-4 1.794-4 4 1.794 4 4 4 4-1.794 4-4zm-4 2c-1.103 0-2-.897-2-2s.897-2 2-2 2 .897 2 2-.897 2-2 2z"/></g></g></svg>